<svg xmlns="http://www.w3.org/2000/svg" xmlns:xlink="http://www.w3.org/1999/xlink" viewBox="0 0 357.3 111"><g fill="#f26522"><use xlink:href="#A"/><path d="M206.8 60.9V62h-13.4L182 40.2h-6.8v19.2c1.6.2 3.6.7 5.8 1.5V62h-21.7v-1.2l3.2-.8 2.7-.6V13.7c-2.1-.4-4.1-.9-5.8-1.5V11H186c5.9 0 10.1 1.3 12.6 3.8s3.7 6 3.7 10.6c0 3.9-1 7.1-3.1 9.6s-5 4.2-8.7 4.9l10.8 19.6c2 .3 3.9.7 5.5 1.4zm-31.6-24h7.6c3.4 0 5.8-1 7.4-3.1s2.3-5 2.3-8.7c0-3.6-.8-6.3-2.3-8.1-1.6-1.8-4-2.7-7.4-2.7h-7.6v22.6zm77 13.1L251 62h-40.3v-1.2c2.4-.8 4.5-1.3 6.2-1.5V13.7c-1.9-.3-3.9-.8-6.2-1.5V11h40.4v12.2h-2.2c-.5-.8-1-2.2-1.6-4.2s-.9-3.6-1-4.6h-19.5v20.9h13.5l.5-3.1.9-3.1h1.6v15.8h-1.6l-.9-3.2c-.3-1.2-.5-2.2-.5-3h-13.5V59h19.9c.1-1.2.5-2.7 1.3-4.7l2-4.2h2.2z"/><use xlink:href="#A" x="146.9"/><path d="M351.4 60.9V62h-21.3v-1.2c1.8-.7 3.8-1.2 5.8-1.5L332.3 49h-20.7l-3.7 10.4c1.9.2 3.9.8 6 1.6v1H297v-1.3l3-.9 2.7-.7 18-48.5h7l18 48.7c2 .4 3.9.9 5.7 1.6zm-20.3-15.2l-9-25.7-9.2 25.7h18.2z"/></g><path d="M155.1 71.4h3.2v24.3h-3.2l-12.8-19.3v19.3h-3.2V71.4h3.2l12.8 19.3V71.4zm20 24.2V71.4h13.6V74h-10.5v8.2h8.3v2.5h-8.3v11h-3.1zm37.9.3c-3.5 0-6.4-1.2-8.8-3.5s-3.6-5.3-3.6-8.9 1.2-6.5 3.6-8.9c2.4-2.3 5.3-3.5 8.8-3.5s6.4 1.2 8.8 3.5 3.6 5.3 3.6 8.9-1.2 6.6-3.6 8.9c-2.5 2.3-5.4 3.5-8.8 3.5zm6.5-5.5c1.7-1.8 2.6-4.1 2.6-6.9s-.9-5.2-2.6-6.9-3.9-2.6-6.5-2.6-4.8.9-6.5 2.6-2.6 4-2.6 6.9.9 5.2 2.6 6.9c1.7 1.8 3.9 2.6 6.5 2.6 2.6.1 4.8-.8 6.5-2.6zm17.2-16.5v-2.6h16v2.6h-6.4v21.7h-3.2V73.9h-6.4zm43.6-2.5v2.5h-9.7v8.3h8.6v2.5h-8.6v8.5h9.7v2.5h-12.8V71.4h12.8zm16.7 21c-2.4-2.3-3.6-5.3-3.6-8.9s1.2-6.5 3.6-8.9c2.4-2.3 5.3-3.5 8.8-3.5 2.5 0 4.8.6 6.7 1.8 2 1.2 3.4 2.9 4.4 5.1H313c-1.4-2.7-3.9-4.1-7.2-4.1-2.6 0-4.8.9-6.5 2.6s-2.6 4-2.6 6.9.9 5.2 2.6 6.9c1.7 1.8 3.9 2.6 6.5 2.6 1.6 0 3-.4 4.3-1.1s2.2-1.7 2.9-3.1h3.9c-.9 2.2-2.4 4-4.4 5.1-2 1.2-4.2 1.8-6.7 1.8-3.4.3-6.4-.9-8.8-3.2zm51.9-21h3.2v24.3h-3.2v-11h-12.2v11h-3.2V71.4h3.2v10.8h12.2V71.4zM0 10.2h85v85H0z" fill="#071a2f"/><path d="M31.2 39.7h23v49.4h-23zm22.9-23h22v23h-22zm-44.9 0h22v23h-22z" fill="#f26522"/><path d="M111.5 72.7h5v21.5h-5m13-21.5h-5.1v21.5h5.1" fill="none" stroke="#071a2f" stroke-width="2.5" stroke-miterlimit="10"/><defs><path id="A" d="M121.4 60.8l4-.9 2.3-.5v-45h-12.1c-.1 1.2-.4 3-1 5.4s-1.1 4-1.5 4.7h-2.2V10.9h43.7v13.5h-2.2c-.4-.7-.9-2.3-1.5-4.7s-.9-4.2-1-5.4h-12.1v45.1c2.2.3 4.3.8 6.4 1.5V62h-22.6v-1.2z"/></defs></svg>